<svg id="Layer_1" data-name="Layer 1" xmlns="http://www.w3.org/2000/svg" viewBox="0 0 260 48.63"><defs><style>.cls-1{fill:#f4f3f3;}.cls-2{fill:#fff;}</style></defs><title>Artboard 1</title><path class="cls-1" d="M4.64,37.38v-24c0-6.52,4.9-6.81,10.11-6.81,2,0,5.06,0,7.57.18V9.38h-7.7C9,9.38,8,10.4,8,15.27v5.07H21.68V23.1H8V37.38Z"/><path class="cls-1" d="M25.42,14.37a53.54,53.54,0,0,1,8.74-.81c5,0,9,1.28,9,7.14V31.8c0,1.37-.06,2.72-.13,4a22.06,22.06,0,0,1-9.82,1.89c-6.3,0-9.17-1.93-9.17-7,0-4.07,1.72-6.65,5.92-7.28a91.23,91.23,0,0,1,10-.69v-1c0-3.84-1.3-5.43-6.4-5.43a55,55,0,0,0-7.85.68Zm8.09,20.71a17.84,17.84,0,0,0,6.36-1c.07-1.13.09-2.59.09-3.7V25.1a58.71,58.71,0,0,0-8.92.64c-2.68.54-3.85,1.61-3.85,4.86C27.19,34.21,29.09,35.08,33.51,35.08Z"/><path class="cls-1" d="M48.88,4.79h3.2v9.65a25.79,25.79,0,0,1,6.49-.88c7,0,9.86,3.07,9.86,12.06,0,9.16-3.13,12.08-10.6,12.08A19.61,19.61,0,0,1,49,35.81c-.08-1.29-.12-2.64-.12-4Zm3.2,25.5c0,1.11,0,2.58.09,3.7a14.9,14.9,0,0,0,5.66,1c5.85,0,7.38-3.11,7.38-9.42,0-6.59-1.13-9.41-7.67-9.41a18.68,18.68,0,0,0-5.46.92Z"/><path class="cls-1" d="M73.16,37.38V19.46c0-1.38,0-2.72.13-4a19.53,19.53,0,0,1,8.82-1.88,19.07,19.07,0,0,1,2.19.1L84,16.38a16.18,16.18,0,0,0-1.92-.09,14.81,14.81,0,0,0-5.67,1.07c-.06,1.11-.09,2.58-.09,3.69V37.38Z"/><path class="cls-1" d="M87.67,6.82c0-1.72.44-2.35,1.93-2.35s1.94.63,1.94,2.35-.41,2.33-1.94,2.33S87.67,8.55,87.67,6.82Zm.33,7h3.21V37.38H88Z"/><path class="cls-1" d="M111.57,37a29,29,0,0,1-6.15.69C97.5,37.7,96,32.13,96,25.37c0-7.7,1.74-11.81,10.23-11.81a19.88,19.88,0,0,1,5.27.67l-.27,2.45a25.49,25.49,0,0,0-3.92-.39c-7.35,0-8.06,2.57-8.06,9.08,0,6.11.54,9.55,8,9.55a21.56,21.56,0,0,0,4-.5Z"/><path class="cls-1" d="M115.55,35.37c0-1.73.43-2.35,1.92-2.35s1.94.62,1.94,2.35-.41,2.33-1.94,2.33S115.55,37.1,115.55,35.37Z"/><path class="cls-2" d="M139.72,26.78l6.91-17.12c.89-2.24,2.46-3.35,4.05-3.35,2.39,0,3.4,1.17,3.52,3.81l1.22,27.26h-5.18l-1-23.53h0L142.75,31a3.15,3.15,0,0,1-6,0l-6.63-17.1h0l-1,23.49h-4.94l1.25-27.28c.12-2.63,1.13-3.79,3.52-3.79,1.56,0,3.07,1,4,3.27Z"/><path class="cls-2" d="M170.07,37.7c-7.69,0-10.47-3.28-10.47-12.08s2.78-12.06,10.47-12.06S180.54,17,180.54,25.62,177.77,37.7,170.07,37.7Zm0-4c4.25,0,5.44-1.86,5.44-8.09s-1.19-8.08-5.44-8.08-5.41,1.6-5.41,8.08S165.82,33.71,170.07,33.71Z"/><path class="cls-2" d="M196.06,31c0-2.69-2.42-2.92-4.61-3.59-3.77-1.15-7.36-2.11-7.36-7.17s3.63-6.63,8.29-6.63a34.53,34.53,0,0,1,8.35.91l-.47,3.68a32.1,32.1,0,0,0-5.88-.63c-1.9,0-5.29,0-5.29,2.4s2.85,2.9,4.8,3.56c4,1.36,7.26,2.11,7.26,7.29,0,5.42-4,6.93-9.16,6.93a36.22,36.22,0,0,1-8.11-.93l.47-3.76a39.79,39.79,0,0,0,6.26.65C192.47,33.66,196.06,33.72,196.06,31Z"/><path class="cls-2" d="M204.45,30.37c0-4.1,1.79-6.68,6.33-7.36a74.14,74.14,0,0,1,8.32-.62c0-3.26-1.42-4.9-5-4.9a68,68,0,0,0-8.17.59l-.41-3.67a54.67,54.67,0,0,1,9.06-.85c5.17,0,9.43,1.41,9.43,7.4V31.32c0,1.55-.06,2.89-.19,4.32-2.63,1.48-6.13,2.06-10.51,2.06C207,37.7,204.45,35.2,204.45,30.37Zm14.65-4.71a35.79,35.79,0,0,0-6.38.57c-2.45.56-3.32,1.32-3.32,4.06,0,2.94,1.64,3.66,4.65,3.66a12.11,12.11,0,0,0,4.91-.81c.1-1,.14-2.1.14-3.15Z"/><path class="cls-2" d="M231.5,10.57c-2.37,0-3-.75-3-3.05s.71-3,3-3,3.05.76,3.05,3.05S233.87,10.57,231.5,10.57ZM229,37.38V13.87h5V37.38Z"/><path class="cls-2" d="M254.17,18.08a23.58,23.58,0,0,0-4.08-.49c-6.19,0-6.78,1.71-6.78,7.8,0,5.77.25,8.19,6.81,8.19a20.6,20.6,0,0,0,4-.52l.45,3.82a31.85,31.85,0,0,1-7.3.82c-7.84,0-9.1-5.93-9.1-12.31,0-7.69,1.79-11.83,10.39-11.83a20.92,20.92,0,0,1,6,.81Z"/></svg>